<svg xmlns="http://www.w3.org/2000/svg" width="64" height="64" viewBox="0 0 64 64" fill="none">
  <path d="M50 26C50 24.8954 49.1046 24 48 24H42C40.8954 24 40 24.8954 40 26V32C40 33.1046 40.8954 34 42 34H50C52.2091 34 54 35.7909 54 38V48C54 50.2091 52.2091 52 50 52H14C11.7909 52 10 50.2091 10 48V38C10 35.7909 11.7909 34 14 34H22C23.1046 34 24 33.1046 24 32V26C24 24.8954 23.1046 24 22 24H16C14.8954 24 14 24.8954 14 26" stroke="#00AFFF" stroke-width="3" stroke-linecap="round"/>
  <path d="M32 12V24M32 12L36 16M32 12L28 16" stroke="#00AFFF" stroke-width="3" stroke-linecap="round" stroke-linejoin="round"/>
  <circle cx="20" cy="44" r="2" fill="#00AFFF"/>
  <circle cx="32" cy="44" r="2" fill="#00AFFF"/>
  <circle cx="44" cy="44" r="2" fill="#00AFFF"/>
</svg>
